<svg xmlns="http://www.w3.org/2000/svg" viewBox="0 0 900 500">
  <!-- Background -->
  <rect width="900" height="500" fill="white"/>
  
  <!-- Grid -->
  <g stroke="#eee" stroke-width="1">
    <!-- Vertical grid lines -->
    <line x1="100" y1="50" x2="100" y2="450" />
    <line x1="200" y1="50" x2="200" y2="450" />
    <line x1="300" y1="50" x2="300" y2="450" />
    <line x1="400" y1="50" x2="400" y2="450" />
    <line x1="500" y1="50" x2="500" y2="450" />
    <line x1="600" y1="50" x2="600" y2="450" />
    <line x1="700" y1="50" x2="700" y2="450" />
    <line x1="800" y1="50" x2="800" y2="450" />
    
    <!-- Horizontal grid lines -->
    <line x1="50" y1="150" x2="850" y2="150" />
    <line x1="50" y1="250" x2="850" y2="250" />
    <line x1="50" y1="350" x2="850" y2="350" />
  </g>
  
  <!-- Axes -->
  <g stroke="#000" stroke-width="2">
    <line x1="50" y1="250" x2="850" y2="250" /> <!-- x-axis: Time -->
    <line x1="50" y1="50" x2="50" y2="450" /> <!-- y-axis: Servo angle -->
  </g>
  
  <!-- Axis labels -->
  <text x="450" y="490" text-anchor="middle" font-family="Arial" font-size="16">Time (t)</text>
  <text x="20" y="250" text-anchor="middle" font-family="Arial" font-size="16" transform="rotate(-90, 20, 250)">Servo angle (θ)</text>
  
  <!-- Center position line -->
  <line x1="50" y1="250" x2="850" y2="250" stroke="#888" stroke-width="1" stroke-dasharray="5,5" />
  <text x="75" y="270" font-family="Arial" font-size="12" fill="#888">90°</text>
  
  <!-- Phase markers -->
  <g stroke="#ccc" stroke-width="1" stroke-dasharray="5,5">
    <line x1="150" y1="50" x2="150" y2="450" />
    <line x1="250" y1="50" x2="250" y2="450" />
    <line x1="350" y1="50" x2="350" y2="450" />
    <line x1="450" y1="50" x2="450" y2="450" />
    <line x1="550" y1="50" x2="550" y2="450" />
    <line x1="650" y1="50" x2="650" y2="450" />
    <line x1="750" y1="50" x2="750" y2="450" />
  </g>
  
  <!-- Horizontal and Vertical Sine Waves with 90° phase difference -->
  <!-- Horizontal wave (Segment 1) -->
  <path d="M50,250 C100,150 200,350 250,250 C300,150 400,350 450,250 C500,150 600,350 650,250 C700,150 800,350 850,250" 
        fill="none" stroke="#FF0000" stroke-width="3"/>
  
  <!-- Vertical wave (Segment 1) - 90° offset -->
  <path d="M50,350 C100,250 200,150 250,250 C300,350 400,150 450,250 C500,350 600,150 650,250 C700,350 800,150 850,250" 
        fill="none" stroke="#0066CC" stroke-width="3"/>
  
  <!-- Horizontal wave (Segment 2) - 60° phase offset from Segment 1 -->
  <path d="M50,170 C100,70 200,270 250,170 C300,70 400,270 450,170 C500,70 600,270 650,170 C700,70 800,270 850,170" 
        fill="none" stroke="#FF6600" stroke-width="2" stroke-dasharray="5,2"/>
  
  <!-- Vertical wave (Segment 2) - 60° phase offset from Segment 1 + 90° -->
  <path d="M50,270 C100,370 200,170 250,270 C300,370 400,170 450,270 C500,370 600,170 650,270 C700,370 800,170 850,270" 
        fill="none" stroke="#6699FF" stroke-width="2" stroke-dasharray="5,2"/>
  
  <!-- Phase markers -->
  <g>
    <!-- 90° phase offset arrows -->
    <line x1="150" y1="150" x2="150" y2="350" stroke="#000" stroke-width="1"/>
    <polygon points="150,350 145,340 155,340" fill="#000"/>
    <text x="125" y="250" text-anchor="end" font-family="Arial" font-size="12">90°</text>
    
    <!-- 60° phase offset arrows (horizontal) -->
    <line x1="150" y1="150" x2="190" y2="150" stroke="#000" stroke-width="1"/>
    <polygon points="190,150 180,145 180,155" fill="#000"/>
    <text x="170" y="140" text-anchor="middle" font-family="Arial" font-size="12">60°</text>
    
    <!-- 60° phase offset arrows (vertical) -->
    <line x1="150" y1="350" x2="190" y2="350" stroke="#000" stroke-width="1"/>
    <polygon points="190,350 180,345 180,355" fill="#000"/>
    <text x="170" y="365" text-anchor="middle" font-family="Arial" font-size="12">60°</text>
  </g>
  
  <!-- Key points highlighting -->
  <g>
    <!-- Horizontal max -->
    <circle cx="150" cy="150" r="5" fill="#FF0000"/>
    <text x="150" y="135" text-anchor="middle" font-family="Arial" font-size="12">H max</text>
    
    <!-- Vertical center -->
    <circle cx="150" cy="250" r="5" fill="#0066CC"/>
    <text x="150" y="235" text-anchor="middle" font-family="Arial" font-size="12">V center</text>
    
    <!-- Horizontal center -->
    <circle cx="250" cy="250" r="5" fill="#FF0000"/>
    <text x="250" y="235" text-anchor="middle" font-family="Arial" font-size="12">H center</text>
    
    <!-- Vertical max -->
    <circle cx="250" cy="150" r="5" fill="#0066CC"/>
    <text x="250" y="135" text-anchor="middle" font-family="Arial" font-size="12">V max</text>
  </g>
  
  <!-- Snake motion illustration -->
  <g transform="translate(850, 400)">
    <rect x="-240" y="-100" width="220" height="80" fill="white" stroke="#ccc" />
    
    <!-- Snake body segments -->
    <g transform="scale(0.8)">
      <!-- Segment 1 -->
      <rect x="-240" y="-80" width="40" height="20" fill="#ffdddd" stroke="#ff0000" stroke-width="2" rx="5" ry="5"/>
      <line x1="-220" y1="-70" x2="-220" y2="-40" stroke="#ff0000" stroke-width="2"/>
      <polygon points="-220,-40 -225,-50 -215,-50" fill="#ff0000"/>
      
      <!-- Segment 2 -->
      <rect x="-190" y="-65" width="40" height="20" fill="#ffdddd" stroke="#ff0000" stroke-width="2" rx="5" ry="5"/>
      <line x1="-170" y1="-55" x2="-170" y2="-25" stroke="#0066cc" stroke-width="2"/>
      <polygon points="-170,-25 -175,-35 -165,-35" fill="#0066cc"/>
      
      <!-- Segment 3 -->
      <rect x="-140" y="-50" width="40" height="20" fill="#ffdddd" stroke="#ff0000" stroke-width="2" rx="5" ry="5"/>
      <line x1="-120" y1="-40" x2="-120" y2="-10" stroke="#ff0000" stroke-width="2"/>
      <polygon points="-120,-10 -125,-20 -115,-20" fill="#ff0000"/>
      
      <!-- Segment 4 -->
      <rect x="-90" y="-35" width="40" height="20" fill="#ffdddd" stroke="#ff0000" stroke-width="2" rx="5" ry="5"/>
      <line x1="-70" y1="-25" x2="-70" y2="5" stroke="#0066cc" stroke-width="2"/>
      <polygon points="-70,5 -75,-5 -65,-5" fill="#0066cc"/>
      
      <text x="-140" y="-90" text-anchor="middle" font-family="Arial" font-size="16">Sidewinding Body Motion</text>
    </g>
  </g>
  
  <!-- Legend -->
  <g transform="translate(150, 430)">
    <rect x="0" y="0" width="600" height="30" fill="white" stroke="#ccc"/>
    <line x1="15" y1="15" x2="40" y2="15" stroke="#FF0000" stroke-width="3"/>
    <text x="45" y="20" font-family="Arial" font-size="14">Horizontal Servo Motion</text>
    <line x1="245" y1="15" x2="270" y2="15" stroke="#0066CC" stroke-width="3"/>
    <text x="275" y="20" font-family="Arial" font-size="14">Vertical Servo Motion (90° offset)</text>
    <text x="530" y="20" font-family="Arial" font-size="14" fill="#888">90°= Center</text>
  </g>
  
  <!-- Title -->
  <text x="450" y="30" text-anchor="middle" font-family="Arial" font-size="20" font-weight="bold">Sidewinding: 90° Phase Relationship Between Horizontal and Vertical Servos</text>
</svg>